<?xml version="1.0" encoding="utf-8"?>
<!-- Generator: Adobe Illustrator 15.1.0, SVG Export Plug-In . SVG Version: 6.00 Build 0)  -->
<!DOCTYPE svg PUBLIC "-//W3C//DTD SVG 1.1//EN" "http://www.w3.org/Graphics/SVG/1.1/DTD/svg11.dtd">
<svg version="1.1" id="_x36_4px" xmlns="http://www.w3.org/2000/svg" xmlns:xlink="http://www.w3.org/1999/xlink" x="0px" y="0px"
	 width="56px" height="56px" viewBox="0 0 56 56" enable-background="new 0 0 56 56" xml:space="preserve">
<g id="spa-saturn">
	<g>
		<path fill="#FF1E00" d="M27.997,49.999c-12.131,0-22-9.869-22-22s9.869-22,22-22s22,9.869,22,22S40.128,49.999,27.997,49.999z
			 M27.997,7.999c-11.028,0-20,8.972-20,20s8.972,20,20,20c11.027,0,20-8.972,20-20S39.024,7.999,27.997,7.999z"/>
	</g>
	<g>
		<path fill="#FF1E00" d="M4.34,55.99c-1.326,0-2.412-0.36-3.193-1.142c-3.932-3.931,3.313-14.917,6.611-19.458
			c0.325-0.446,0.95-0.547,1.396-0.222c0.447,0.325,0.546,0.95,0.222,1.397c-6.883,9.478-8.382,15.301-6.815,16.868
			c2.844,2.842,16.461-4.431,31.451-19.42c6.925-6.925,12.737-14.118,16.364-20.257c3.902-6.605,4.139-10.113,3.057-11.194
			c-1.566-1.567-7.391-0.069-16.869,6.814c-0.447,0.324-1.071,0.226-1.396-0.222s-0.226-1.072,0.222-1.397
			c4.54-3.297,15.526-10.541,19.458-6.609c2.756,2.754,0.025,8.93-2.75,13.626c-3.709,6.278-9.63,13.613-16.671,20.653
			C24.517,46.337,11.205,55.99,4.34,55.99z"/>
	</g>
	<g>
		<path fill="#FF1E00" d="M10.987,50.275c-1.628,0-2.929-0.467-3.865-1.403c-2.165-2.164-1.77-6.463,1.113-12.104
			c0.252-0.49,0.854-0.688,1.346-0.436c0.492,0.252,0.687,0.854,0.436,1.346c-2.385,4.667-2.938,8.322-1.48,9.78
			c1.424,1.426,4.979,0.924,9.506-1.339c4.984-2.492,10.656-6.791,15.969-12.104s9.612-10.984,12.104-15.97
			c2.264-4.528,2.766-8.081,1.342-9.505C46,7.081,42.344,7.634,37.675,10.019c-0.494,0.252-1.095,0.056-1.346-0.436
			c-0.251-0.492-0.056-1.095,0.436-1.346c5.643-2.884,9.941-3.278,12.107-1.111c2.154,2.154,1.82,6.239-0.967,11.813
			c-2.586,5.172-7.019,11.028-12.479,16.489c-5.461,5.462-11.317,9.894-16.489,12.479C15.784,49.484,13.108,50.275,10.987,50.275z"
			/>
	</g>
</g>
</svg>
