<?xml version="1.0" encoding="utf-8"?>
<!-- Generator: Adobe Illustrator 15.1.0, SVG Export Plug-In . SVG Version: 6.00 Build 0)  -->
<!DOCTYPE svg PUBLIC "-//W3C//DTD SVG 1.1//EN" "http://www.w3.org/Graphics/SVG/1.1/DTD/svg11.dtd">
<svg version="1.1" id="_x36_4px" xmlns="http://www.w3.org/2000/svg" xmlns:xlink="http://www.w3.org/1999/xlink" x="0px" y="0px"
	 width="56px" height="56px" viewBox="0 0 56 56" enable-background="new 0 0 56 56" xml:space="preserve">
<g id="spa-space-walk">
	<g>
		
			<rect x="16.318" y="47.167" transform="matrix(0.7072 0.707 -0.707 0.7072 40.006 -0.2608)" fill="#FFFFFF" width="8" height="2"/>
	</g>
	<g>
		
			<rect x="7.832" y="38.682" transform="matrix(0.7071 0.7071 -0.7071 0.7071 31.5252 3.2558)" fill="#FFFFFF" width="8.001" height="2"/>
	</g>
	<g>
		<path fill="#FFFFFF" d="M33,33.999c-0.256,0-0.512-0.098-0.707-0.293l-6-6c-0.391-0.391-0.391-1.023,0-1.414l6-6
			c0.391-0.391,1.023-0.391,1.414,0l6,6c0.391,0.391,0.391,1.023,0,1.414l-6,6C33.512,33.901,33.256,33.999,33,33.999z M28.414,27
			L33,31.585L37.586,27L33,22.414L28.414,27z"/>
	</g>
	<g>
		<path fill="#FFFFFF" d="M44.155,23.999c-2.271,0-4.281-0.81-5.812-2.341C33.793,17.11,36.672,9.99,40.05,6.609
			C41.733,4.926,43.992,4,46.411,4c2.536,0,4.938,1.004,6.762,2.828c1.777,1.777,2.781,4.118,2.826,6.591
			c0.045,2.484-0.882,4.803-2.608,6.53C51.522,21.817,47.982,23.999,44.155,23.999z M46.411,6c-1.885,0-3.642,0.719-4.946,2.023
			c-2.919,2.921-5.138,8.793-1.708,12.22c1.165,1.165,2.645,1.756,4.398,1.756c3.01,0,6.097-1.74,7.821-3.464
			c1.339-1.339,2.058-3.144,2.022-5.08c-0.035-1.952-0.831-3.803-2.24-5.213C50.312,6.796,48.413,6,46.411,6z"/>
	</g>
	<g>
		<path fill="#FFFFFF" d="M52.683,20.242c-0.521,0-0.961-0.404-0.997-0.931c-0.002-0.023-0.318-3.208-4.343-7.233
			c-3.912-3.912-6.468-3.768-6.489-3.767c-0.539,0.05-1.028-0.359-1.08-0.901c-0.053-0.542,0.327-1.024,0.867-1.087
			c0.348-0.038,3.511-0.265,8.116,4.341c4.606,4.606,4.913,8.352,4.924,8.509c0.038,0.551-0.378,1.029-0.929,1.066
			C52.729,20.241,52.705,20.242,52.683,20.242z"/>
	</g>
	<g>
		<path fill="#FFFFFF" d="M21,20c-0.553,0-1-0.448-1-1v-8c0-0.552,0.447-1,1-1c0.552,0,1,0.448,1,1v8C22,19.552,21.552,20,21,20z"/>
	</g>
	<g>
		<path fill="#FFFFFF" d="M17.426,56c-1.312,0-2.512-0.507-3.473-1.468c-1.031-1.031-1.549-2.381-1.457-3.8
			c0.08-1.233,0.611-2.426,1.458-3.272l8.485-8.485c0.188-0.188,0.292-0.439,0.292-0.707s-0.104-0.519-0.292-0.707
			c-0.378-0.378-1.037-0.378-1.415,0l-0.059-0.059c-0.676,0.794-2.651,2.77-8.427,8.544c-1.701,1.7-4.888,2.184-7.07,0
			c-0.982-0.981-1.489-2.212-1.468-3.557c0.021-1.304,0.57-2.617,1.468-3.515L24.574,20H17c-2.405,0-5-1.912-5-5
			c0-3.087,2.595-4.999,4.999-5H27c5.977,0.001,10.542,4.568,10.733,4.762c0.388,0.393,0.383,1.025-0.01,1.413
			c-0.394,0.388-1.027,0.383-1.414-0.008C36.269,16.125,32.126,12,27,12H17c-1.21,0-3,0.955-3,3c0,2.046,1.79,3,3,3h10
			c0.405,0,0.77,0.245,0.924,0.619c0.155,0.375,0.068,0.805-0.22,1.091L6.88,40.392c-0.536,0.536-0.866,1.334-0.879,2.131
			c-0.01,0.551,0.137,1.364,0.882,2.109c1.446,1.446,3.386,0.855,4.242,0c0,0,8.358-8.357,8.481-8.481
			c1.141-1.142,3.114-1.138,4.247-0.004c1.17,1.17,1.17,3.073,0,4.242l-8.485,8.485c-0.856,0.856-1.448,2.797-0.001,4.244
			c0.743,0.743,1.566,0.908,2.105,0.881c0.786-0.012,1.605-0.35,2.137-0.882L40.29,32.295c0.39-0.392,1.023-0.394,1.414-0.005
			c0.393,0.389,0.395,1.022,0.005,1.414L21.026,54.528c-0.9,0.902-2.217,1.451-3.523,1.471C17.478,56,17.451,56,17.426,56z"/>
	</g>
	<g>
		<path fill="#FFFFFF" d="M49,39.999h-8c-0.553,0-1-0.447-1-1c0-0.552,0.447-1,1-1h8c0.552,0,1,0.448,1,1
			C50,39.552,49.552,39.999,49,39.999z"/>
	</g>
	<g>
		<path fill="#FFFFFF" d="M45,47.999c-3.089,0-5-2.595-5-5v-10c0-0.552,0.447-1,1-1c0.552,0,1,0.448,1,1v10c0,1.21,0.953,3,3,3
			c2.045,0,2.999-1.79,3-3v-10c-0.001-5.148-4.113-9.256-4.155-9.297c-0.394-0.387-0.398-1.021-0.011-1.414
			c0.387-0.394,1.021-0.398,1.414-0.011c0.194,0.191,4.751,4.745,4.752,10.722v10C49.998,45.404,48.087,47.999,45,47.999z"/>
	</g>
	<g>
		<path fill="#FFFFFF" d="M31.197,12.833c-0.256,0-0.512-0.098-0.707-0.292c-0.391-0.391-0.391-1.024-0.001-1.415l3.217-3.219
			c1.562-1.56,4.1-1.56,5.658,0l0.572,0.572c0.391,0.391,0.391,1.023,0,1.414s-1.023,0.391-1.414,0L37.95,9.322
			c-0.779-0.779-2.049-0.779-2.829,0l-3.217,3.218C31.709,12.736,31.453,12.833,31.197,12.833z"/>
	</g>
	<g>
		<path fill="#FFFFFF" d="M48.167,29.805c-0.256,0-0.512-0.098-0.707-0.292c-0.391-0.391-0.391-1.024-0.001-1.415l3.218-3.22
			c0.78-0.78,0.78-2.048,0.001-2.828l-0.572-0.573c-0.39-0.391-0.39-1.024,0.001-1.414c0.392-0.39,1.024-0.39,1.414,0.001
			l0.571,0.572c0.756,0.755,1.172,1.759,1.172,2.828s-0.416,2.073-1.172,2.828l-3.218,3.219
			C48.679,29.707,48.423,29.805,48.167,29.805z"/>
	</g>
	<g>
		<path fill="#FFFFFF" d="M33.001,11c-0.347,0-0.685-0.18-0.869-0.503C32.095,10.432,28.355,4,24,4c-2.62,0-4.126,0.812-5.869,1.752
			C16.177,6.805,13.963,8,10,8C3.25,8,0.22,1.692,0.094,1.423c-0.233-0.5-0.019-1.095,0.482-1.33
			c0.499-0.232,1.095-0.018,1.329,0.481C2.021,0.82,4.552,6,10,6c3.458,0,5.267-0.976,7.182-2.008C18.997,3.012,20.875,2,24,2
			c5.517,0,9.693,7.198,9.868,7.505c0.273,0.479,0.107,1.089-0.372,1.364C33.34,10.958,33.169,11,33.001,11z"/>
	</g>
</g>
</svg>
