<?xml version="1.0" encoding="utf-8"?>
<!-- Generator: Adobe Illustrator 15.1.0, SVG Export Plug-In . SVG Version: 6.00 Build 0)  -->
<!DOCTYPE svg PUBLIC "-//W3C//DTD SVG 1.1//EN" "http://www.w3.org/Graphics/SVG/1.1/DTD/svg11.dtd">
<svg version="1.1" id="_x36_4px" xmlns="http://www.w3.org/2000/svg" xmlns:xlink="http://www.w3.org/1999/xlink" x="0px" y="0px"
	 width="56px" height="56px" viewBox="0 0 56 56" enable-background="new 0 0 56 56" xml:space="preserve">
<g id="spa-helmet-astronaut">
	<g>
		<path fill="#FF1E00" d="M9.195,34H6c-2.201,0-3-1.794-3-3V21c0-1.206,0.799-3,3-3h3.195c0.552,0,1,0.448,1,1s-0.448,1-1,1H6
			c-0.805,0-0.988,0.55-1,1.012V31c0.012,0.45,0.195,1,1,1h3.195c0.552,0,1,0.447,1,1S9.748,34,9.195,34z"/>
	</g>
	<g>
		<path fill="#FF1E00" d="M52,34h-3.195c-0.553,0-1-0.447-1-1s0.447-1,1-1H52c0.806,0,0.988-0.55,1-1.012V21
			c-0.012-0.45-0.194-1-1-1h-3.195c-0.553,0-1-0.448-1-1s0.447-1,1-1H52c2.201,0,3,1.794,3,3v10C55,32.206,54.201,34,52,34z"/>
	</g>
	<g>
		<path fill="#FF1E00" d="M6,20c-0.552,0-1-0.448-1-1V3c0-0.552,0.448-1,1-1s1,0.448,1,1v16C7,19.552,6.552,20,6,20z"/>
	</g>
	<g>
		<path fill="#FF1E00" d="M29,48C16.869,48,7,38.131,7,26S16.869,4,29,4s22,9.869,22,22S41.131,48,29,48z M29,6
			C17.972,6,9,14.972,9,26c0,11.028,8.972,20,20,20c11.028,0,20-8.972,20-20C49,14.972,40.028,6,29,6z"/>
	</g>
	<g>
		<path fill="#FF1E00" d="M46,39.33c-0.553,0-1-0.447-1-1V21.598C40.335,19.145,35.232,18,29,18c-6.233,0-11.336,1.145-16,3.598
			V38.33c0,0.553-0.448,1-1,1s-1-0.447-1-1V21c0-0.365,0.198-0.7,0.518-0.876C16.629,17.311,22.185,16,29,16
			c6.814,0,12.369,1.311,17.482,4.124C46.802,20.3,47,20.635,47,21v17.33C47,38.883,46.553,39.33,46,39.33z"/>
	</g>
	<g>
		<path fill="#FF1E00" d="M12.001,26c-0.353,0-0.695-0.187-0.877-0.518c-0.267-0.484-0.09-1.092,0.394-1.358
			C16.629,21.311,22.185,20,29,20c6.814,0,12.369,1.311,17.482,4.124c0.483,0.266,0.66,0.874,0.394,1.358
			c-0.267,0.484-0.874,0.661-1.358,0.394C40.713,23.231,35.464,22,29,22c-6.465,0-11.713,1.231-16.518,3.876
			C12.329,25.96,12.164,26,12.001,26z"/>
	</g>
	<g>
		<path fill="#FF1E00" d="M36,42c-0.553,0-1-0.447-1-1s0.447-1,1-1c3.472,0,9-4.576,9-10c0-0.553,0.447-1,1-1s1,0.447,1,1
			C47,36.624,40.344,42,36,42z"/>
	</g>
	<g>
		<path fill="#FF1E00" d="M33,44c-2.243,0-4-1.317-4-3s1.757-3,4-3s4,1.317,4,3S35.243,44,33,44z M33,40c-1.221,0-2,0.592-2,1
			s0.779,1,2,1s2-0.592,2-1S34.221,40,33,40z"/>
	</g>
	<g>
		<path fill="#FF1E00" d="M26,28h-6c-0.552,0-1-0.448-1-1s0.448-1,1-1h6c0.552,0,1,0.448,1,1S26.552,28,26,28z"/>
	</g>
	<g>
		<path fill="#FF1E00" d="M38,28h-6c-0.553,0-1-0.448-1-1s0.447-1,1-1h6c0.553,0,1,0.448,1,1S38.553,28,38,28z"/>
	</g>
	<g>
		<circle fill="#FF1E00" cx="23" cy="28" r="2"/>
	</g>
	<g>
		<circle fill="#FF1E00" cx="35" cy="28" r="2"/>
	</g>
	<g>
		<path fill="#FF1E00" d="M30,36h-2c-0.552,0-1-0.447-1-1s0.448-1,1-1h2c0.553,0,1,0.447,1,1S30.553,36,30,36z"/>
	</g>
	<g>
		<path fill="#FF1E00" d="M22,46.805c-0.256,0-0.512-0.098-0.707-0.293C15,40.219,15,33.062,15,23.154c0-0.552,0.448-1,1-1
			s1,0.448,1,1c0,9.777,0,16.236,5.707,21.943c0.391,0.391,0.391,1.023,0,1.414C22.512,46.707,22.256,46.805,22,46.805z"/>
	</g>
	<g>
		<path fill="#FF1E00" d="M36,46.805c-0.256,0-0.512-0.098-0.707-0.293c-0.391-0.391-0.391-1.023,0-1.414
			C41,39.391,41,32.932,41,23.154c0-0.552,0.447-1,1-1s1,0.448,1,1c0,9.907,0,17.064-6.293,23.357
			C36.512,46.707,36.256,46.805,36,46.805z"/>
	</g>
	<g>
		<path fill="#FF1E00" d="M29,54c-8.228,0-15.048-3.008-20.851-9.194c-1.537-1.537-1.537-4.074,0.022-5.634
			c0.752-0.753,1.743-1.192,2.787-1.237c1.086-0.059,2.113,0.345,2.873,1.104c0.391,0.391,0.391,1.023,0,1.414s-1.023,0.391-1.414,0
			c-0.359-0.358-0.849-0.539-1.373-0.521c-0.535,0.023-1.067,0.262-1.459,0.653c-0.78,0.779-0.78,2.049,0,2.828
			C15.087,49.279,21.25,52,29,52c7.751,0,13.912-2.721,19.392-8.563c0.802-0.802,0.802-2.071,0.022-2.851
			c-0.393-0.392-0.924-0.63-1.459-0.653c-0.526-0.018-1.015,0.161-1.373,0.521c-0.391,0.391-1.023,0.391-1.414,0
			s-0.391-1.023,0-1.414c0.76-0.76,1.784-1.161,2.873-1.104c1.045,0.045,2.034,0.484,2.787,1.237c1.56,1.56,1.56,4.097,0,5.656
			C44.048,50.992,37.228,54,29,54z"/>
	</g>
</g>
</svg>
