<?xml version="1.0" encoding="utf-8"?>
<!-- Generator: Adobe Illustrator 15.1.0, SVG Export Plug-In . SVG Version: 6.00 Build 0)  -->
<!DOCTYPE svg PUBLIC "-//W3C//DTD SVG 1.1//EN" "http://www.w3.org/Graphics/SVG/1.1/DTD/svg11.dtd">
<svg version="1.1" id="_x36_4px" xmlns="http://www.w3.org/2000/svg" xmlns:xlink="http://www.w3.org/1999/xlink" x="0px" y="0px"
	 width="56px" height="56px" viewBox="0 0 56 56" enable-background="new 0 0 56 56" xml:space="preserve">
<g id="spa-robot">
	<g>
		<path fill="#FFFFFF" d="M28,41c-5.413,0-7.658-4.677-9.707-12.754c-0.136-0.535,0.188-1.08,0.723-1.216
			c0.535-0.132,1.08,0.188,1.215,0.724C22.338,36.058,24.371,39,28,39c3.629,0,5.662-2.942,7.768-11.246
			c0.137-0.535,0.684-0.856,1.216-0.724c0.535,0.136,0.858,0.681,0.724,1.216C35.658,36.323,33.412,41,28,41z"/>
	</g>
	<g>
		<path fill="#FFFFFF" d="M37.152,29H18.848c-1.432,0-2.639-0.988-2.938-2.402C15.306,23.732,15,20.839,15,18
			C15,2.656,24.091,1,28,1c3.908,0,13,1.656,13,17c0,2.839-0.307,5.732-0.91,8.598C39.791,28.012,38.584,29,37.152,29z M28,3
			c-7.093,0-11,5.327-11,15c0,2.701,0.292,5.455,0.868,8.186C17.969,26.665,18.372,27,18.848,27h18.304
			c0.476,0,0.879-0.335,0.98-0.814C38.708,23.455,39,20.701,39,18C39,8.327,35.094,3,28,3z"/>
	</g>
	<g>
		<path fill="#FFFFFF" d="M16.199,23H14c-1.654,0-3-1.346-3-3v-4c0-1.654,1.346-3,3-3h2c0.552,0,1,0.447,1,1s-0.448,1-1,1h-2
			c-0.551,0-1,0.448-1,1v4c0,0.552,0.449,1,1,1h2.199c0.552,0,1,0.447,1,1S16.751,23,16.199,23z"/>
	</g>
	<g>
		<path fill="#FFFFFF" d="M10,39c-0.552,0-1-0.447-1-1v-2c0-1.654-1.346-3-3-3s-3,1.346-3,3v2c0,0.553-0.448,1-1,1s-1-0.447-1-1v-2
			c0-2.757,2.243-5,5-5s5,2.243,5,5v2C11,38.553,10.552,39,10,39z"/>
	</g>
	<g>
		<path fill="#FFFFFF" d="M6,33c-0.552,0-1-0.447-1-1v-8c0-3.859,3.14-7,7-7c0.552,0,1,0.447,1,1s-0.448,1-1,1c-2.757,0-5,2.243-5,5
			v8C7,32.553,6.552,33,6,33z"/>
	</g>
	<g>
		<path fill="#FFFFFF" d="M42,23h-2.199c-0.552,0-1-0.447-1-1s0.448-1,1-1H42c0.551,0,1-0.448,1-1v-4c0-0.552-0.449-1-1-1h-2
			c-0.553,0-1-0.447-1-1s0.447-1,1-1h2c1.654,0,3,1.346,3,3v4C45,21.654,43.654,23,42,23z"/>
	</g>
	<g>
		<path fill="#FFFFFF" d="M54,39c-0.553,0-1-0.447-1-1v-2c0-1.654-1.346-3-3-3s-3,1.346-3,3v2c0,0.553-0.447,1-1,1s-1-0.447-1-1v-2
			c0-2.757,2.243-5,5-5s5,2.243,5,5v2C55,38.553,54.553,39,54,39z"/>
	</g>
	<g>
		<path fill="#FFFFFF" d="M50,33c-0.553,0-1-0.447-1-1v-8c0-2.757-2.243-5-5-5c-0.553,0-1-0.447-1-1s0.447-1,1-1
			c3.859,0,7,3.141,7,7v8C51,32.553,50.553,33,50,33z"/>
	</g>
	<g>
		<path fill="#FFFFFF" d="M34,15H22c-0.552,0-1-0.447-1-1s0.448-1,1-1h12c0.553,0,1,0.447,1,1S34.553,15,34,15z"/>
	</g>
	<g>
		<path fill="#FFFFFF" d="M19,55h-5.382c-0.698,0-1.334-0.354-1.702-0.948c-0.367-0.594-0.399-1.321-0.087-1.946l2.724-5.447
			C15.064,45.636,16.092,45,17.236,45H18c1.654,0,3,1.346,3,3v5C21,54.103,20.103,55,19,55z M17.236,47
			c-0.381,0-0.724,0.212-0.895,0.553L13.618,53h5.383L19,48c0-0.552-0.449-1-1-1H17.236z"/>
	</g>
	<g>
		<path fill="#FFFFFF" d="M18,47c-0.552,0-1-0.447-1-1v-6c0-2.757,2.243-5,5-5c0.552,0,1,0.447,1,1s-0.448,1-1,1
			c-1.654,0-3,1.346-3,3v6C19,46.553,18.552,47,18,47z"/>
	</g>
	<g>
		<path fill="#FFFFFF" d="M42.382,55H37c-1.104,0-2-0.897-2-2v-5c0-1.654,1.346-3,3-3h0.764c1.145,0,2.172,0.636,2.684,1.658
			l2.724,5.447c0.312,0.625,0.279,1.353-0.087,1.946C43.717,54.646,43.08,55,42.382,55z M38,47c-0.551,0-1,0.448-1,1v5h5.387
			l-2.729-5.447C39.488,47.212,39.145,47,38.764,47H38z"/>
	</g>
	<g>
		<path fill="#FFFFFF" d="M38,47c-0.553,0-1-0.447-1-1v-6c0-1.654-1.346-3-3-3c-0.553,0-1-0.447-1-1s0.447-1,1-1
			c2.757,0,5,2.243,5,5v6C39,46.553,38.553,47,38,47z"/>
	</g>
</g>
</svg>
