<?xml version="1.0" encoding="utf-8"?>
<!-- Generator: Adobe Illustrator 15.1.0, SVG Export Plug-In . SVG Version: 6.00 Build 0)  -->
<!DOCTYPE svg PUBLIC "-//W3C//DTD SVG 1.1//EN" "http://www.w3.org/Graphics/SVG/1.1/DTD/svg11.dtd">
<svg version="1.1" id="_x36_4px" xmlns="http://www.w3.org/2000/svg" xmlns:xlink="http://www.w3.org/1999/xlink" x="0px" y="0px"
	 width="56px" height="56px" viewBox="0 0 56 56" enable-background="new 0 0 56 56" xml:space="preserve">
<g id="spa-rover">
	<g>
		<path fill="#FFFFFF" d="M34,28c-1.654,0-3-1.346-3-3s1.346-3,3-3s3,1.346,3,3S35.654,28,34,28z M34,24c-0.551,0-1,0.449-1,1
			c0,0.551,0.449,1,1,1s1-0.449,1-1C35,24.449,34.551,24,34,24z"/>
	</g>
	<g>
		<path fill="#FFFFFF" d="M22,28c-1.654,0-3-1.346-3-3s1.346-3,3-3s3,1.346,3,3S23.654,28,22,28z M22,24c-0.551,0-1,0.449-1,1
			c0,0.551,0.449,1,1,1s1-0.449,1-1C23,24.449,22.551,24,22,24z"/>
	</g>
	<g>
		<path fill="#FFFFFF" d="M20.59,24.59c-0.256,0-0.512-0.098-0.707-0.293l-4.519-4.519c-0.391-0.391-0.391-1.023,0-1.414
			s1.023-0.391,1.414,0l4.519,4.519c0.391,0.391,0.391,1.023,0,1.414C21.102,24.492,20.846,24.59,20.59,24.59z"/>
	</g>
	<g>
		<path fill="#FFFFFF" d="M35.408,24.592c-0.256,0-0.512-0.098-0.707-0.293c-0.391-0.391-0.391-1.023,0-1.414l4.592-4.592
			c0.391-0.391,1.023-0.391,1.414,0s0.391,1.023,0,1.414l-4.592,4.592C35.92,24.494,35.664,24.592,35.408,24.592z"/>
	</g>
	<g>
		<path fill="#FFFFFF" d="M52,20H40c-0.553,0-1-0.448-1-1V7c0-0.552,0.447-1,1-1h6c0.553,0,1,0.448,1,1s-0.447,1-1,1h-5v10h10v-5
			c0-0.552,0.447-1,1-1s1,0.448,1,1v6C53,19.552,52.553,20,52,20z"/>
	</g>
	<g>
		<path fill="#FFFFFF" d="M28,52c-3.86,0-7-3.141-7-7s3.14-7,7-7c3.859,0,7,3.141,7,7S31.859,52,28,52z M28,40c-2.757,0-5,2.243-5,5
			s2.243,5,5,5s5-2.243,5-5S30.757,40,28,40z"/>
	</g>
	<g>
		<path fill="#FFFFFF" d="M44,52c-3.859,0-7-3.141-7-7s3.141-7,7-7s7,3.141,7,7S47.859,52,44,52z M44,40c-2.757,0-5,2.243-5,5
			s2.243,5,5,5s5-2.243,5-5S46.757,40,44,40z"/>
	</g>
	<g>
		<path fill="#FFFFFF" d="M12,52c-3.86,0-7-3.141-7-7s3.14-7,7-7s7,3.141,7,7S15.86,52,12,52z M12,40c-2.757,0-5,2.243-5,5
			s2.243,5,5,5s5-2.243,5-5S14.757,40,12,40z"/>
	</g>
	<g>
		<rect x="18" y="44" fill="#FFFFFF" width="4" height="2"/>
	</g>
	<g>
		<rect x="34" y="44" fill="#FFFFFF" width="4" height="2"/>
	</g>
	<g>
		<path fill="#FFFFFF" d="M52,46h-2v-2h2c0.551,0,1-0.449,1-1v-4c0-2.757-2.243-5-5-5H8c-2.757,0-5,2.243-5,5v4c0,0.551,0.449,1,1,1
			h2v2H4c-1.654,0-3-1.346-3-3v-4c0-3.859,3.14-7,7-7h40c3.859,0,7,3.141,7,7v4C55,44.654,53.654,46,52,46z"/>
	</g>
	<g>
		<path fill="#FFFFFF" d="M12,48c-1.654,0-3-1.346-3-3s1.346-3,3-3s3,1.346,3,3S13.654,48,12,48z M12,44c-0.551,0-1,0.449-1,1
			s0.449,1,1,1s1-0.449,1-1S12.551,44,12,44z"/>
	</g>
	<g>
		<path fill="#FFFFFF" d="M28,48c-1.654,0-3-1.346-3-3s1.346-3,3-3s3,1.346,3,3S29.654,48,28,48z M28,44c-0.551,0-1,0.449-1,1
			s0.449,1,1,1s1-0.449,1-1S28.551,44,28,44z"/>
	</g>
	<g>
		<path fill="#FFFFFF" d="M44,48c-1.654,0-3-1.346-3-3s1.346-3,3-3s3,1.346,3,3S45.654,48,44,48z M44,44c-0.551,0-1,0.449-1,1
			s0.449,1,1,1s1-0.449,1-1S44.551,44,44,44z"/>
	</g>
	<g>
		<path fill="#FFFFFF" d="M9,13c-0.256,0-0.512-0.098-0.707-0.293l-5-5c-0.391-0.391-0.391-1.023,0-1.414s1.023-0.391,1.414,0l5,5
			c0.391,0.391,0.391,1.023,0,1.414C9.512,12.902,9.256,13,9,13z"/>
	</g>
	<g>
		<path fill="#FFFFFF" d="M22,34c-0.552,0-1-0.447-1-1v-6c0-0.553,0.448-1,1-1s1,0.447,1,1v6C23,33.553,22.552,34,22,34z"/>
	</g>
	<g>
		<path fill="#FFFFFF" d="M34,34c-0.553,0-1-0.447-1-1v-6c0-0.553,0.447-1,1-1s1,0.447,1,1v6C35,33.553,34.553,34,34,34z"/>
	</g>
	<g>
		<path fill="#FFFFFF" d="M9.105,22.965c-2.938,0-5.712-1.157-7.812-3.258c-0.391-0.391-0.391-1.023,0-1.414l14-14
			c0.391-0.391,1.023-0.391,1.414,0c4.289,4.289,4.321,11.236,0.071,15.485C14.724,21.833,11.999,22.965,9.105,22.965z
			 M3.452,18.962c1.609,1.298,3.583,2.002,5.654,2.002c2.359,0,4.582-0.924,6.259-2.601c3.233-3.233,3.426-8.385,0.597-11.912
			L3.452,18.962z"/>
	</g>
</g>
</svg>
