<?xml version="1.0" encoding="utf-8"?>
<!-- Generator: Adobe Illustrator 15.1.0, SVG Export Plug-In . SVG Version: 6.00 Build 0)  -->
<!DOCTYPE svg PUBLIC "-//W3C//DTD SVG 1.1//EN" "http://www.w3.org/Graphics/SVG/1.1/DTD/svg11.dtd">
<svg version="1.1" id="_x36_4px" xmlns="http://www.w3.org/2000/svg" xmlns:xlink="http://www.w3.org/1999/xlink" x="0px" y="0px"
	 width="56px" height="56px" viewBox="0 0 56 56" enable-background="new 0 0 56 56" xml:space="preserve">
<g id="spa-rocket">
	<g>
		<path fill="#FFFFFF" d="M22.765,40c-0.26,0-0.516-0.102-0.708-0.293l-5.764-5.764c-0.297-0.297-0.376-0.747-0.2-1.128
			c0.274-0.592,6.809-14.58,14.531-22.301C37.114,4.023,46.696,1,51.128,1c1.436,0,2.419,0.284,3.004,0.869
			c1.562,1.562,0.776,6.143-0.479,9.909c-1.727,5.179-4.703,10.135-8.167,13.599c-7.722,7.722-21.71,14.256-22.301,14.53
			C23.05,39.97,22.907,40,22.765,40z M18.208,33.029l4.763,4.764c2.831-1.374,14.536-7.266,21.101-13.83
			c3.251-3.252,6.052-7.923,7.683-12.817c1.541-4.62,1.383-7.442,0.963-7.862C52.64,3.204,52.2,3,51.128,3
			c-4.26,0-13.264,3.103-19.09,8.929C25.473,18.494,19.581,30.198,18.208,33.029z"/>
	</g>
	<g>
		<path fill="#FFFFFF" d="M18.579,31H2c-0.421,0-0.797-0.264-0.94-0.659c-0.143-0.396-0.023-0.84,0.3-1.109l12-10
			C13.54,19.082,13.767,19,14,19h10.493c0.552,0,1,0.447,1,1s-0.448,1-1,1H14.362l-9.6,8h13.816c0.552,0,1,0.447,1,1
			S19.131,31,18.579,31z"/>
	</g>
	<g>
		<path fill="#FFFFFF" d="M26,55c-0.114,0-0.229-0.02-0.34-0.06C25.264,54.797,25,54.421,25,54V37.422c0-0.553,0.448-1,1-1
			s1,0.447,1,1v13.816l8-9.601V31.507c0-0.553,0.447-1,1-1s1,0.447,1,1V42c0,0.234-0.082,0.461-0.232,0.641l-10,12
			C26.575,54.873,26.292,55,26,55z"/>
	</g>
	<g>
		<path fill="#FFFFFF" d="M14,43c-0.256,0-0.512-0.098-0.707-0.293c-0.391-0.391-0.391-1.023,0-1.414l16-16
			c0.391-0.391,1.023-0.391,1.414,0s0.391,1.023,0,1.414l-16,16C14.512,42.902,14.256,43,14,43z"/>
	</g>
	<g>
		<path fill="#FFFFFF" d="M42.001,19c-2.757,0-5-2.243-5-5s2.243-5,5-5s5,2.243,5,5S44.758,19,42.001,19z M42.001,11
			c-1.654,0-3,1.346-3,3s1.346,3,3,3s3-1.346,3-3S43.655,11,42.001,11z"/>
	</g>
	<g>
		<path fill="#FFFFFF" d="M2,55c-0.265,0-0.519-0.104-0.707-0.293c-0.201-0.201-0.307-0.479-0.292-0.763C1.045,53.171,2.19,35,14,35
			c0.552,0,1,0.447,1,1s-0.448,1-1,1C5.606,37,3.55,49.045,3.108,52.892C6.954,52.446,19,50.383,19,42c0-0.553,0.448-1,1-1
			s1,0.447,1,1C21,53.811,2.83,54.955,2.056,54.998C2.038,54.999,2.019,55,2,55z"/>
	</g>
</g>
</svg>
