<?xml version="1.0" encoding="utf-8"?>
<!-- Generator: Adobe Illustrator 15.1.0, SVG Export Plug-In . SVG Version: 6.00 Build 0)  -->
<!DOCTYPE svg PUBLIC "-//W3C//DTD SVG 1.1//EN" "http://www.w3.org/Graphics/SVG/1.1/DTD/svg11.dtd">
<svg version="1.1" id="_x36_4px" xmlns="http://www.w3.org/2000/svg" xmlns:xlink="http://www.w3.org/1999/xlink" x="0px" y="0px"
	 width="56px" height="56px" viewBox="0 0 56 56" enable-background="new 0 0 56 56" xml:space="preserve">
<g id="spa-moon-flag-2">
	<g>
		<path fill="#FF1E00" d="M55.001,54c-0.314,0-0.623-0.147-0.818-0.424C48.185,45.075,38.397,40,28,40
			C17.602,40,7.813,45.075,1.817,53.576c-0.318,0.452-0.943,0.559-1.394,0.241c-0.452-0.318-0.56-0.942-0.241-1.394
			C6.554,43.392,16.953,38,28,38c11.046,0,21.445,5.392,27.817,14.424c0.318,0.451,0.21,1.075-0.241,1.394
			C55.401,53.94,55.2,54,55.001,54z"/>
	</g>
	<g>
		<path fill="#FF1E00" d="M20.999,48c-0.468,0-0.886-0.33-0.98-0.807l-8-40.564c-0.052-0.262,0.003-0.535,0.154-0.756
			c0.15-0.221,0.383-0.373,0.646-0.421l18.446-3.387C32.308,1.874,33.36,2.1,34.23,2.701c0.871,0.601,1.456,1.505,1.646,2.546
			c0.196,1.063,1.222,1.766,2.283,1.574l8.738-1.604c0.551-0.101,1.065,0.26,1.164,0.803l3.921,21.358
			c0.1,0.543-0.26,1.064-0.803,1.164l-8.738,1.604c-2.153,0.392-4.217-1.034-4.611-3.18c-0.194-1.064-1.22-1.768-2.283-1.576
			l-17.143,3.281l3.576,18.134c0.107,0.542-0.246,1.067-0.788,1.175C21.128,47.994,21.063,48,20.999,48z M35.899,23.36
			c1.88,0,3.549,1.338,3.898,3.246c0.196,1.063,1.22,1.768,2.283,1.575l7.755-1.424l-3.56-19.392l-7.755,1.423
			c-2.153,0.399-4.217-1.033-4.611-3.179c-0.095-0.516-0.384-0.964-0.815-1.262c-0.431-0.297-0.95-0.407-1.468-0.315l-17.45,3.204
			l3.84,19.474l17.162-3.284C35.421,23.382,35.662,23.36,35.899,23.36z"/>
	</g>
	<g>
		<path fill="#FF1E00" d="M38.813,27.786c-0.474,0-0.895-0.337-0.982-0.819L33.91,5.608c-0.1-0.543,0.26-1.064,0.803-1.164
			c0.552-0.097,1.065,0.26,1.164,0.803l3.921,21.358c0.1,0.543-0.26,1.064-0.803,1.164C38.934,27.781,38.873,27.786,38.813,27.786z"
			/>
	</g>
	<g>
		<path fill="#FF1E00" d="M37.502,51.258c-0.091,0-0.183-0.012-0.273-0.038c-2.93-0.829-7.741-2.903-7.188-5.411
			c0.078-0.353,0.305-0.854,0.943-1.235c1.67-0.999,5.119-0.547,7.787,0.207c2.93,0.829,7.74,2.902,7.187,5.411
			c-0.119,0.539-0.647,0.876-1.192,0.761c-0.539-0.119-0.88-0.653-0.761-1.192c-0.11-0.482-2.187-2.038-5.778-3.056
			c-3.548-1.001-5.75-0.729-6.218-0.419c0.219,0.528,2.278,2.023,5.765,3.011c0.531,0.15,0.84,0.703,0.689,1.234
			C38.339,50.971,37.938,51.258,37.502,51.258z"/>
	</g>
	<g>
		<path fill="#FF1E00" d="M12.929,52c-0.989,0-1.86-0.299-2.394-0.889c-0.439-0.485-0.617-1.115-0.5-1.773
			c0.176-0.998,0.993-1.949,2.241-2.608c1.943-1.03,4.175-0.96,5.189,0.159c0.371,0.409,0.339,1.041-0.07,1.412
			c-0.41,0.37-1.042,0.34-1.413-0.07c-0.25-0.276-1.456-0.431-2.771,0.267c-0.756,0.399-1.156,0.896-1.207,1.188
			c0.264,0.359,1.467,0.516,2.784-0.183c0.488-0.261,1.093-0.072,1.352,0.416c0.258,0.487,0.072,1.093-0.416,1.352
			C14.804,51.758,13.819,52,12.929,52z"/>
	</g>
</g>
</svg>
