<?xml version="1.0" encoding="utf-8"?>
<!-- Generator: Adobe Illustrator 15.1.0, SVG Export Plug-In . SVG Version: 6.00 Build 0)  -->
<!DOCTYPE svg PUBLIC "-//W3C//DTD SVG 1.1//EN" "http://www.w3.org/Graphics/SVG/1.1/DTD/svg11.dtd">
<svg version="1.1" id="_x36_4px" xmlns="http://www.w3.org/2000/svg" xmlns:xlink="http://www.w3.org/1999/xlink" x="0px" y="0px"
	 width="56px" height="56px" viewBox="0 0 56 56" enable-background="new 0 0 56 56" xml:space="preserve">
<g id="spa-helmet">
	<g>
		<path fill="#FF1E00" d="M8.195,34H5c-2.201,0-3-1.794-3-3V21c0-1.206,0.799-3,3-3h3.195c0.552,0,1,0.448,1,1s-0.448,1-1,1H5
			c-0.805,0-0.988,0.55-1,1.012V31c0.012,0.45,0.195,1,1,1h3.195c0.552,0,1,0.447,1,1S8.748,34,8.195,34z"/>
	</g>
	<g>
		<path fill="#FF1E00" d="M51,34h-3.195c-0.553,0-1-0.447-1-1s0.447-1,1-1H51c0.806,0,0.988-0.55,1-1.012V21
			c-0.012-0.45-0.194-1-1-1h-3.195c-0.553,0-1-0.448-1-1s0.447-1,1-1H51c2.201,0,3,1.794,3,3v10C54,32.206,53.201,34,51,34z"/>
	</g>
	<g>
		<path fill="#FF1E00" d="M5,20c-0.552,0-1-0.448-1-1V3c0-0.552,0.448-1,1-1s1,0.448,1,1v16C6,19.552,5.552,20,5,20z"/>
	</g>
	<g>
		<path fill="#FF1E00" d="M45,39.33c-0.553,0-1-0.447-1-1V21.598C39.335,19.145,34.232,18,28,18c-6.233,0-11.336,1.145-16,3.598
			V38.33c0,0.553-0.448,1-1,1s-1-0.447-1-1V21c0-0.365,0.198-0.7,0.518-0.876C15.629,17.311,21.185,16,28,16
			c6.814,0,12.369,1.311,17.482,4.124C45.802,20.3,46,20.635,46,21v17.33C46,38.883,45.553,39.33,45,39.33z"/>
	</g>
	<g>
		<path fill="#FF1E00" d="M15,32c-0.552,0-1-0.447-1-1v-7.5c0-0.345,0.178-0.665,0.47-0.848C14.643,22.544,18.819,20,28,20
			c0.552,0,1,0.448,1,1s-0.448,1-1,1c-6.863,0-10.728,1.504-12,2.106V31C16,31.553,15.552,32,15,32z"/>
	</g>
	<g>
		<path fill="#FF1E00" d="M28,54c-8.228,0-15.048-3.008-20.851-9.194c-1.537-1.537-1.537-4.074,0.022-5.634
			c0.752-0.753,1.743-1.192,2.787-1.237c1.083-0.059,2.114,0.345,2.873,1.104c0.391,0.391,0.391,1.023,0,1.414s-1.023,0.391-1.414,0
			c-0.359-0.358-0.849-0.539-1.373-0.521c-0.535,0.023-1.067,0.262-1.459,0.653c-0.78,0.779-0.78,2.049,0,2.828
			C14.087,49.279,20.25,52,28,52c7.751,0,13.912-2.721,19.392-8.563c0.802-0.802,0.802-2.071,0.022-2.851
			c-0.393-0.392-0.924-0.63-1.459-0.653c-0.528-0.018-1.015,0.161-1.373,0.521c-0.391,0.391-1.023,0.391-1.414,0
			s-0.391-1.023,0-1.414c0.76-0.76,1.789-1.161,2.873-1.104c1.045,0.045,2.034,0.484,2.787,1.237c1.56,1.56,1.56,4.097,0,5.656
			C43.048,50.992,36.228,54,28,54z"/>
	</g>
	<g>
		<path fill="#FF1E00" d="M28,48C15.869,48,6,38.131,6,26S15.869,4,28,4s22,9.869,22,22S40.131,48,28,48z M28,6
			C16.972,6,8,14.972,8,26c0,11.028,8.972,20,20,20c11.028,0,20-8.972,20-20C48,14.972,39.028,6,28,6z"/>
	</g>
</g>
</svg>
