<?xml version="1.0" encoding="utf-8"?>
<!-- Generator: Adobe Illustrator 15.1.0, SVG Export Plug-In . SVG Version: 6.00 Build 0)  -->
<!DOCTYPE svg PUBLIC "-//W3C//DTD SVG 1.1//EN" "http://www.w3.org/Graphics/SVG/1.1/DTD/svg11.dtd">
<svg version="1.1" id="Layer_1" xmlns="http://www.w3.org/2000/svg" xmlns:xlink="http://www.w3.org/1999/xlink" x="0px" y="0px"
	 width="36px" height="36.001px" viewBox="0 0 36 36.001" enable-background="new 0 0 36 36.001" xml:space="preserve">
<path fill-rule="evenodd" clip-rule="evenodd" fill="#FFFFFF" d="M18,0.444c-9.939,0-18,8.06-18,18.002
	c0,7.952,5.157,14.699,12.311,17.079c0.9,0.165,1.229-0.391,1.229-0.867c0-0.428-0.016-1.56-0.025-3.062
	c-5.007,1.088-6.063-2.413-6.063-2.413c-0.818-2.079-1.999-2.633-1.999-2.633c-1.634-1.117,0.124-1.094,0.124-1.094
	c1.807,0.127,2.757,1.854,2.757,1.854c1.605,2.751,4.213,1.956,5.238,1.496c0.164-1.164,0.629-1.957,1.143-2.407
	c-3.997-0.454-8.199-1.998-8.199-8.896c0-1.965,0.702-3.572,1.853-4.83c-0.185-0.455-0.803-2.285,0.177-4.763
	c0,0,1.511-0.484,4.95,1.846c1.436-0.399,2.975-0.6,4.506-0.606c1.528,0.006,3.068,0.207,4.507,0.606
	c3.436-2.33,4.944-1.846,4.944-1.846c0.981,2.478,0.364,4.308,0.179,4.763c1.153,1.258,1.851,2.865,1.851,4.83
	c0,6.916-4.208,8.438-8.218,8.883c0.646,0.556,1.221,1.654,1.221,3.333c0,2.407-0.021,4.348-0.021,4.938
	c0,0.481,0.324,1.041,1.238,0.865C30.847,33.139,36,26.396,36,18.446C36,8.504,27.94,0.444,18,0.444z"/>
</svg>
