<?xml version="1.0" encoding="utf-8"?>
<!-- Generator: Adobe Illustrator 15.1.0, SVG Export Plug-In . SVG Version: 6.00 Build 0)  -->
<!DOCTYPE svg PUBLIC "-//W3C//DTD SVG 1.1//EN" "http://www.w3.org/Graphics/SVG/1.1/DTD/svg11.dtd">
<svg version="1.1" id="Layer_1" xmlns="http://www.w3.org/2000/svg" xmlns:xlink="http://www.w3.org/1999/xlink" x="0px" y="0px"
	 width="36px" height="36.001px" viewBox="0 0 36 36.001" enable-background="new 0 0 36 36.001" xml:space="preserve">
<g>
	<g>
		<g>
			<path fill="#FFFFFF" d="M33.333,0H2.655C1.19,0,0,1.163,0,2.594v30.808C0,34.836,1.19,36,2.655,36h30.678
				C34.801,36,36,34.836,36,33.402V2.594C36,1.163,34.801,0,33.333,0z M10.679,30.676H5.335V13.497h5.344V30.676z M8.009,11.148
				c-1.716,0-3.098-1.387-3.098-3.097c0-1.707,1.382-3.095,3.098-3.095c1.708,0,3.094,1.388,3.094,3.095
				C11.103,9.761,9.716,11.148,8.009,11.148z M30.674,30.676h-5.335v-8.354c0-1.992-0.038-4.555-2.774-4.555
				c-2.779,0-3.203,2.17-3.203,4.411v8.498h-5.333V13.497h5.118v2.347h0.073c0.712-1.351,2.455-2.775,5.053-2.775
				c5.402,0,6.401,3.557,6.401,8.185V30.676z"/>
		</g>
	</g>
</g>
</svg>
